# MagicaVoxel @ Ephtracy

# group
o 

# material
mtllib Heroes(Colfos)-2.mtl
usemtl palette

# normals
vn -1 0 0
vn 1 0 0
vn 0 0 1
vn 0 0 -1
vn 0 -1 0
vn 0 1 0

# texcoords
vt 0.158203 0.5
vt 0.216797 0.5
vt 0.220703 0.5
vt 0.248047 0.5
vt 0.306641 0.5
vt 0.994141 0.5

# verts
v 1.2 2.9 0.1
v 1.2 2.9 -0.4
v 1.2 3 0.4
v 1.2 3 0.1
v 1.2 3.1 0.5
v 1.2 3.1 0.4
v 1.2 3.1 -0.1
v 1.2 3.1 -0.4
v 1.2 3.2 0.2
v 1.2 3.2 -0.1
v 1.2 3.3 0.3
v 1.2 3.3 0.2
v 1.2 3.4 0.5
v 1.2 3.4 0.3
v 1.3 2.7 0.6
v 1.3 2.7 -0.3
v 1.3 2.9 0.1
v 1.3 2.9 -0.3
v 1.3 3 0.4
v 1.3 3 0.1
v 1.3 3.1 0.5
v 1.3 3.1 0.4
v 1.3 3.1 -0.1
v 1.3 3.1 -0.3
v 1.3 3.2 0.2
v 1.3 3.2 -0.1
v 1.3 3.3 0.3
v 1.3 3.3 0.2
v 1.3 3.4 0.5
v 1.3 3.4 0.3
v 1.3 3.8 0.6
v 1.3 3.8 -0.3
v 1.4 2.6 0.6
v 1.4 2.6 0.5
v 1.4 2.6 -0.2
v 1.4 2.6 -0.3
v 1.4 2.7 0.6
v 1.4 2.7 0.5
v 1.4 2.7 -0.2
v 1.4 2.7 -0.3
v 1.5 3 -0.3
v 1.5 3 -0.4
v 1.5 3.1 -0.3
v 1.5 3.1 -0.4
v 1.7 3.1 -0.3
v 1.7 3.1 -0.4
v 1.7 3.2 -0.3
v 1.7 3.2 -0.4
v 2.2 2.9 -0.3
v 2.2 2.9 -0.4
v 2.2 3 -0.3
v 2.2 3 -0.4
v 2.3 3 -0.3
v 2.3 3 -0.4
v 2.3 3.1 -0.3
v 2.3 3.1 -0.4
v 1.4 3 -0.3
v 1.4 3 -0.4
v 1.4 3.1 -0.3
v 1.4 3.1 -0.4
v 1.5 2.9 -0.3
v 1.5 2.9 -0.4
v 1.5 3 -0.3
v 1.5 3 -0.4
v 2 3.1 -0.3
v 2 3.1 -0.4
v 2 3.2 -0.3
v 2 3.2 -0.4
v 2.2 3 -0.3
v 2.2 3 -0.4
v 2.2 3.1 -0.3
v 2.2 3.1 -0.4
v 2.3 2.6 0.6
v 2.3 2.6 0.5
v 2.3 2.6 -0.2
v 2.3 2.6 -0.3
v 2.3 2.7 0.6
v 2.3 2.7 0.5
v 2.3 2.7 -0.2
v 2.3 2.7 -0.3
v 2.4 2.7 0.6
v 2.4 2.7 -0.3
v 2.4 2.9 0.1
v 2.4 2.9 -0.3
v 2.4 3 0.4
v 2.4 3 0.1
v 2.4 3.1 0.5
v 2.4 3.1 0.4
v 2.4 3.1 -0.1
v 2.4 3.1 -0.3
v 2.4 3.2 0.2
v 2.4 3.2 -0.1
v 2.4 3.3 0.3
v 2.4 3.3 0.2
v 2.4 3.4 0.5
v 2.4 3.4 0.3
v 2.4 3.8 0.6
v 2.4 3.8 -0.3
v 2.5 2.9 0.1
v 2.5 2.9 -0.4
v 2.5 3 0.4
v 2.5 3 0.1
v 2.5 3.1 0.5
v 2.5 3.1 0.4
v 2.5 3.1 -0.1
v 2.5 3.1 -0.4
v 2.5 3.2 0.2
v 2.5 3.2 -0.1
v 2.5 3.3 0.3
v 2.5 3.3 0.2
v 2.5 3.4 0.5
v 2.5 3.4 0.3
v 1.3 2.7 0.6
v 1.3 3.8 0.6
v 1.4 2.6 0.6
v 1.4 2.7 0.6
v 2.3 2.6 0.6
v 2.3 2.7 0.6
v 2.4 2.7 0.6
v 2.4 3.8 0.6
v 1.2 3.1 0.5
v 1.2 3.4 0.5
v 1.3 3.1 0.5
v 1.3 3.4 0.5
v 2.4 3.1 0.5
v 2.4 3.4 0.5
v 2.5 3.1 0.5
v 2.5 3.4 0.5
v 1.2 3 0.4
v 1.2 3.1 0.4
v 1.3 3 0.4
v 1.3 3.1 0.4
v 2.4 3 0.4
v 2.4 3.1 0.4
v 2.5 3 0.4
v 2.5 3.1 0.4
v 1.2 2.9 0.1
v 1.2 3 0.1
v 1.3 2.9 0.1
v 1.3 3 0.1
v 2.4 2.9 0.1
v 2.4 3 0.1
v 2.5 2.9 0.1
v 2.5 3 0.1
v 1.4 2.6 -0.2
v 1.4 2.7 -0.2
v 2.3 2.6 -0.2
v 2.3 2.7 -0.2
v 1.4 2.6 0.5
v 1.4 2.7 0.5
v 2.3 2.6 0.5
v 2.3 2.7 0.5
v 1.2 3.3 0.3
v 1.2 3.4 0.3
v 1.3 3.3 0.3
v 1.3 3.4 0.3
v 2.4 3.3 0.3
v 2.4 3.4 0.3
v 2.5 3.3 0.3
v 2.5 3.4 0.3
v 1.2 3.2 0.2
v 1.2 3.3 0.2
v 1.3 3.2 0.2
v 1.3 3.3 0.2
v 2.4 3.2 0.2
v 2.4 3.3 0.2
v 2.5 3.2 0.2
v 2.5 3.3 0.2
v 1.2 3.1 -0.1
v 1.2 3.2 -0.1
v 1.3 3.1 -0.1
v 1.3 3.2 -0.1
v 2.4 3.1 -0.1
v 2.4 3.2 -0.1
v 2.5 3.1 -0.1
v 2.5 3.2 -0.1
v 1.3 2.7 -0.3
v 1.3 2.9 -0.3
v 1.3 3.1 -0.3
v 1.3 3.8 -0.3
v 1.4 2.6 -0.3
v 1.4 2.7 -0.3
v 1.4 3 -0.3
v 1.4 3.1 -0.3
v 1.5 2.9 -0.3
v 1.5 3 -0.3
v 1.5 3.1 -0.3
v 1.5 3.3 -0.3
v 1.5 3.5 -0.3
v 1.6 2.9 -0.3
v 1.6 3 -0.3
v 1.6 3.2 -0.3
v 1.6 3.3 -0.3
v 1.7 3.1 -0.3
v 1.7 3.2 -0.3
v 1.7 3.3 -0.3
v 1.8 3.2 -0.3
v 1.8 3.3 -0.3
v 1.8 3.5 -0.3
v 1.9 3.2 -0.3
v 1.9 3.3 -0.3
v 1.9 3.5 -0.3
v 2 3.1 -0.3
v 2 3.2 -0.3
v 2 3.3 -0.3
v 2.1 2.9 -0.3
v 2.1 3 -0.3
v 2.1 3.2 -0.3
v 2.1 3.3 -0.3
v 2.2 2.9 -0.3
v 2.2 3 -0.3
v 2.2 3.1 -0.3
v 2.2 3.3 -0.3
v 2.2 3.5 -0.3
v 2.3 2.6 -0.3
v 2.3 2.7 -0.3
v 2.3 3 -0.3
v 2.3 3.1 -0.3
v 2.4 2.7 -0.3
v 2.4 2.9 -0.3
v 2.4 3.1 -0.3
v 2.4 3.8 -0.3
v 1.2 2.9 -0.4
v 1.2 3.1 -0.4
v 1.4 3 -0.4
v 1.4 3.1 -0.4
v 1.5 2.9 -0.4
v 1.5 3 -0.4
v 1.5 3.1 -0.4
v 1.7 3.1 -0.4
v 1.7 3.2 -0.4
v 2 3.1 -0.4
v 2 3.2 -0.4
v 2.2 2.9 -0.4
v 2.2 3 -0.4
v 2.2 3.1 -0.4
v 2.3 3 -0.4
v 2.3 3.1 -0.4
v 2.5 2.9 -0.4
v 2.5 3.1 -0.4
v 1.4 2.6 0.6
v 2.3 2.6 0.6
v 1.4 2.6 0.5
v 2.3 2.6 0.5
v 1.4 2.6 -0.2
v 2.3 2.6 -0.2
v 1.4 2.6 -0.3
v 2.3 2.6 -0.3
v 1.3 2.7 0.6
v 1.4 2.7 0.6
v 2.3 2.7 0.6
v 2.4 2.7 0.6
v 1.4 2.7 0.5
v 2.3 2.7 0.5
v 1.4 2.7 -0.2
v 2.3 2.7 -0.2
v 1.3 2.7 -0.3
v 1.4 2.7 -0.3
v 2.3 2.7 -0.3
v 2.4 2.7 -0.3
v 1.2 2.9 0.1
v 1.3 2.9 0.1
v 2.4 2.9 0.1
v 2.5 2.9 0.1
v 1.3 2.9 -0.3
v 1.5 2.9 -0.3
v 2.2 2.9 -0.3
v 2.4 2.9 -0.3
v 1.2 2.9 -0.4
v 1.5 2.9 -0.4
v 2.2 2.9 -0.4
v 2.5 2.9 -0.4
v 1.2 3 0.4
v 1.3 3 0.4
v 2.4 3 0.4
v 2.5 3 0.4
v 1.2 3 0.1
v 1.3 3 0.1
v 2.4 3 0.1
v 2.5 3 0.1
v 1.5 3 -0.3
v 1.6 3 -0.3
v 2.1 3 -0.3
v 2.2 3 -0.3
v 1.5 3 -0.4
v 2.2 3 -0.4
v 1.2 3.1 0.5
v 1.3 3.1 0.5
v 2.4 3.1 0.5
v 2.5 3.1 0.5
v 1.2 3.1 0.4
v 1.3 3.1 0.4
v 2.4 3.1 0.4
v 2.5 3.1 0.4
v 1.4 3 -0.3
v 1.5 3 -0.3
v 2.2 3 -0.3
v 2.3 3 -0.3
v 1.4 3 -0.4
v 1.5 3 -0.4
v 2.2 3 -0.4
v 2.3 3 -0.4
v 1.2 3.1 -0.1
v 1.3 3.1 -0.1
v 2.4 3.1 -0.1
v 2.5 3.1 -0.1
v 1.3 3.1 -0.3
v 1.4 3.1 -0.3
v 1.5 3.1 -0.3
v 1.7 3.1 -0.3
v 2 3.1 -0.3
v 2.2 3.1 -0.3
v 2.3 3.1 -0.3
v 2.4 3.1 -0.3
v 1.2 3.1 -0.4
v 1.4 3.1 -0.4
v 1.5 3.1 -0.4
v 1.7 3.1 -0.4
v 2 3.1 -0.4
v 2.2 3.1 -0.4
v 2.3 3.1 -0.4
v 2.5 3.1 -0.4
v 1.2 3.2 0.2
v 1.3 3.2 0.2
v 2.4 3.2 0.2
v 2.5 3.2 0.2
v 1.2 3.2 -0.1
v 1.3 3.2 -0.1
v 2.4 3.2 -0.1
v 2.5 3.2 -0.1
v 1.7 3.2 -0.3
v 1.8 3.2 -0.3
v 1.9 3.2 -0.3
v 2 3.2 -0.3
v 1.7 3.2 -0.4
v 2 3.2 -0.4
v 1.2 3.3 0.3
v 1.3 3.3 0.3
v 2.4 3.3 0.3
v 2.5 3.3 0.3
v 1.2 3.3 0.2
v 1.3 3.3 0.2
v 2.4 3.3 0.2
v 2.5 3.3 0.2
v 1.2 3.4 0.5
v 1.3 3.4 0.5
v 2.4 3.4 0.5
v 2.5 3.4 0.5
v 1.2 3.4 0.3
v 1.3 3.4 0.3
v 2.4 3.4 0.3
v 2.5 3.4 0.3
v 1.3 3.8 0.6
v 2.4 3.8 0.6
v 1.3 3.8 -0.3
v 2.4 3.8 -0.3

# faces
f 4/1/1 2/1/1 1/1/1
f 6/1/1 4/1/1 3/1/1
f 7/1/1 2/1/1 4/1/1
f 7/1/1 4/1/1 6/1/1
f 8/1/1 2/1/1 7/1/1
f 9/1/1 6/1/1 5/1/1
f 9/1/1 7/1/1 6/1/1
f 10/1/1 7/1/1 9/1/1
f 11/1/1 9/1/1 5/1/1
f 12/1/1 9/1/1 11/1/1
f 13/1/1 11/1/1 5/1/1
f 14/1/1 11/1/1 13/1/1
f 17/4/1 16/4/1 15/4/1
f 18/4/1 16/4/1 17/4/1
f 19/4/1 17/4/1 15/4/1
f 20/4/1 17/4/1 19/4/1
f 21/4/1 19/4/1 15/4/1
f 22/4/1 19/4/1 21/4/1
f 26/4/1 24/4/1 23/4/1
f 28/4/1 26/4/1 25/4/1
f 29/4/1 21/4/1 15/4/1
f 30/4/1 28/4/1 27/4/1
f 31/4/1 29/4/1 15/4/1
f 31/4/1 30/4/1 29/4/1
f 32/4/1 28/4/1 30/4/1
f 32/4/1 30/4/1 31/4/1
f 32/4/1 24/4/1 26/4/1
f 32/4/1 26/4/1 28/4/1
f 37/4/1 34/4/1 33/4/1
f 38/4/1 34/4/1 37/4/1
f 39/4/1 36/4/1 35/4/1
f 40/4/1 36/4/1 39/4/1
f 43/1/1 42/1/1 41/1/1
f 44/1/1 42/1/1 43/1/1
f 47/1/1 46/1/1 45/1/1
f 48/1/1 46/1/1 47/1/1
f 51/1/1 50/1/1 49/1/1
f 52/1/1 50/1/1 51/1/1
f 55/1/1 54/1/1 53/1/1
f 56/1/1 54/1/1 55/1/1
f 57/1/2 58/1/2 59/1/2
f 59/1/2 58/1/2 60/1/2
f 61/1/2 62/1/2 63/1/2
f 63/1/2 62/1/2 64/1/2
f 65/1/2 66/1/2 67/1/2
f 67/1/2 66/1/2 68/1/2
f 69/1/2 70/1/2 71/1/2
f 71/1/2 70/1/2 72/1/2
f 73/4/2 74/4/2 77/4/2
f 77/4/2 74/4/2 78/4/2
f 75/4/2 76/4/2 79/4/2
f 79/4/2 76/4/2 80/4/2
f 81/4/2 82/4/2 83/4/2
f 83/4/2 82/4/2 84/4/2
f 81/4/2 83/4/2 85/4/2
f 85/4/2 83/4/2 86/4/2
f 81/4/2 85/4/2 87/4/2
f 87/4/2 85/4/2 88/4/2
f 89/4/2 90/4/2 92/4/2
f 91/4/2 92/4/2 94/4/2
f 81/4/2 87/4/2 95/4/2
f 93/4/2 94/4/2 96/4/2
f 81/4/2 95/4/2 97/4/2
f 95/4/2 96/4/2 97/4/2
f 96/4/2 94/4/2 98/4/2
f 97/4/2 96/4/2 98/4/2
f 92/4/2 90/4/2 98/4/2
f 94/4/2 92/4/2 98/4/2
f 99/1/2 100/1/2 102/1/2
f 101/1/2 102/1/2 104/1/2
f 102/1/2 100/1/2 105/1/2
f 104/1/2 102/1/2 105/1/2
f 105/1/2 100/1/2 106/1/2
f 103/1/2 104/1/2 107/1/2
f 104/1/2 105/1/2 107/1/2
f 107/1/2 105/1/2 108/1/2
f 103/1/2 107/1/2 109/1/2
f 109/1/2 107/1/2 110/1/2
f 103/1/2 109/1/2 111/1/2
f 111/1/2 109/1/2 112/1/2
f 116/4/3 114/4/3 113/4/3
f 117/4/3 116/4/3 115/4/3
f 118/4/3 114/4/3 116/4/3
f 118/4/3 116/4/3 117/4/3
f 119/4/3 114/4/3 118/4/3
f 120/4/3 114/4/3 119/4/3
f 123/1/3 122/1/3 121/1/3
f 124/1/3 122/1/3 123/1/3
f 127/1/3 126/1/3 125/1/3
f 128/1/3 126/1/3 127/1/3
f 131/1/3 130/1/3 129/1/3
f 132/1/3 130/1/3 131/1/3
f 135/1/3 134/1/3 133/1/3
f 136/1/3 134/1/3 135/1/3
f 139/1/3 138/1/3 137/1/3
f 140/1/3 138/1/3 139/1/3
f 143/1/3 142/1/3 141/1/3
f 144/1/3 142/1/3 143/1/3
f 147/4/3 146/4/3 145/4/3
f 148/4/3 146/4/3 147/4/3
f 149/4/4 150/4/4 151/4/4
f 151/4/4 150/4/4 152/4/4
f 153/1/4 154/1/4 155/1/4
f 155/1/4 154/1/4 156/1/4
f 157/1/4 158/1/4 159/1/4
f 159/1/4 158/1/4 160/1/4
f 161/1/4 162/1/4 163/1/4
f 163/1/4 162/1/4 164/1/4
f 165/1/4 166/1/4 167/1/4
f 167/1/4 166/1/4 168/1/4
f 169/1/4 170/1/4 171/1/4
f 171/1/4 170/1/4 172/1/4
f 173/1/4 174/1/4 175/1/4
f 175/1/4 174/1/4 176/1/4
f 177/4/4 178/4/4 182/4/4
f 179/4/4 180/4/4 184/4/4
f 181/4/4 182/4/4 185/4/4
f 182/4/4 178/4/4 185/4/4
f 183/4/4 184/4/4 186/4/4
f 184/4/4 180/4/4 187/4/4
f 186/4/4 184/4/4 187/4/4
f 187/4/4 180/4/4 188/4/4
f 188/4/4 180/4/4 189/4/4
f 181/4/4 185/4/4 190/4/4
f 185/2/4 186/2/4 190/2/4
f 190/2/4 186/2/4 191/2/4
f 187/4/4 188/4/4 192/4/4
f 188/3/4 189/3/4 193/3/4
f 192/4/4 188/4/4 193/4/4
f 187/4/4 192/4/4 194/4/4
f 192/6/4 193/6/4 195/6/4
f 194/4/4 192/4/4 195/4/4
f 193/3/4 189/3/4 196/3/4
f 195/6/4 193/6/4 196/6/4
f 195/2/4 196/2/4 197/2/4
f 196/3/4 189/3/4 198/3/4
f 197/2/4 196/2/4 198/2/4
f 189/4/4 180/4/4 199/4/4
f 198/3/4 189/3/4 199/3/4
f 197/4/4 198/4/4 200/4/4
f 198/4/4 199/4/4 200/4/4
f 200/4/4 199/4/4 201/4/4
f 199/4/4 180/4/4 202/4/4
f 201/4/4 199/4/4 202/4/4
f 200/2/4 201/2/4 204/2/4
f 201/3/4 202/3/4 205/3/4
f 204/2/4 201/2/4 205/2/4
f 190/4/4 191/4/4 206/4/4
f 181/4/4 190/4/4 206/4/4
f 206/4/4 191/4/4 207/4/4
f 204/6/4 205/6/4 208/6/4
f 203/4/4 204/4/4 208/4/4
f 205/3/4 202/3/4 209/3/4
f 208/6/4 205/6/4 209/6/4
f 206/2/4 207/2/4 210/2/4
f 181/4/4 206/4/4 210/4/4
f 210/2/4 207/2/4 211/2/4
f 203/4/4 208/4/4 212/4/4
f 208/4/4 209/4/4 212/4/4
f 209/3/4 202/3/4 213/3/4
f 212/4/4 209/4/4 213/4/4
f 202/4/4 180/4/4 214/4/4
f 213/3/4 202/3/4 214/3/4
f 181/4/4 210/4/4 215/4/4
f 215/4/4 210/4/4 216/4/4
f 212/4/4 213/4/4 217/4/4
f 211/4/4 212/4/4 217/4/4
f 213/4/4 214/4/4 217/4/4
f 217/4/4 214/4/4 218/4/4
f 216/4/4 210/4/4 219/4/4
f 219/4/4 210/4/4 220/4/4
f 218/4/4 214/4/4 221/4/4
f 214/4/4 180/4/4 222/4/4
f 221/4/4 214/4/4 222/4/4
f 223/1/4 224/1/4 225/1/4
f 225/1/4 224/1/4 226/1/4
f 223/1/4 225/1/4 227/1/4
f 227/1/4 225/1/4 228/1/4
f 228/1/4 229/1/4 230/1/4
f 228/1/4 230/1/4 232/1/4
f 230/1/4 231/1/4 232/1/4
f 232/1/4 231/1/4 233/1/4
f 228/1/4 232/1/4 235/1/4
f 235/1/4 232/1/4 236/1/4
f 234/1/4 235/1/4 237/1/4
f 234/1/4 237/1/4 239/1/4
f 237/1/4 238/1/4 239/1/4
f 239/1/4 238/1/4 240/1/4
f 243/4/5 242/4/5 241/4/5
f 244/4/5 242/4/5 243/4/5
f 247/4/5 246/4/5 245/4/5
f 248/4/5 246/4/5 247/4/5
f 253/4/5 250/4/5 249/4/5
f 254/4/5 252/4/5 251/4/5
f 255/4/5 253/4/5 249/4/5
f 255/4/5 254/4/5 253/4/5
f 256/4/5 252/4/5 254/4/5
f 256/4/5 254/4/5 255/4/5
f 257/4/5 255/4/5 249/4/5
f 258/4/5 255/4/5 257/4/5
f 259/4/5 252/4/5 256/4/5
f 260/4/5 252/4/5 259/4/5
f 265/1/5 262/1/5 261/1/5
f 268/1/5 264/1/5 263/1/5
f 269/1/5 266/1/5 265/1/5
f 269/1/5 265/1/5 261/1/5
f 270/1/5 266/1/5 269/1/5
f 271/1/5 268/1/5 267/1/5
f 272/1/5 264/1/5 268/1/5
f 272/1/5 268/1/5 271/1/5
f 277/1/5 274/1/5 273/1/5
f 278/1/5 274/1/5 277/1/5
f 279/1/5 276/1/5 275/1/5
f 280/1/5 276/1/5 279/1/5
f 285/1/5 282/1/5 281/1/5
f 285/1/5 284/1/5 283/1/5
f 285/1/5 283/1/5 282/1/5
f 286/1/5 284/1/5 285/1/5
f 291/1/5 288/1/5 287/1/5
f 292/1/5 288/1/5 291/1/5
f 293/1/5 290/1/5 289/1/5
f 294/1/5 290/1/5 293/1/5
f 295/1/6 296/1/6 299/1/6
f 299/1/6 296/1/6 300/1/6
f 297/1/6 298/1/6 301/1/6
f 301/1/6 298/1/6 302/1/6
f 303/1/6 304/1/6 307/1/6
f 305/1/6 306/1/6 314/1/6
f 303/1/6 307/1/6 315/1/6
f 307/1/6 308/1/6 315/1/6
f 315/1/6 308/1/6 316/1/6
f 309/1/6 310/1/6 317/1/6
f 317/1/6 310/1/6 318/1/6
f 311/1/6 312/1/6 319/1/6
f 319/1/6 312/1/6 320/1/6
f 313/1/6 314/1/6 321/1/6
f 314/1/6 306/1/6 322/1/6
f 321/1/6 314/1/6 322/1/6
f 323/1/6 324/1/6 327/1/6
f 327/1/6 324/1/6 328/1/6
f 325/1/6 326/1/6 329/1/6
f 329/1/6 326/1/6 330/1/6
f 331/1/6 332/1/6 335/1/6
f 333/1/6 334/1/6 335/1/6
f 332/1/6 333/1/6 335/1/6
f 335/1/6 334/1/6 336/1/6
f 337/1/6 338/1/6 341/1/6
f 341/1/6 338/1/6 342/1/6
f 339/1/6 340/1/6 343/1/6
f 343/1/6 340/1/6 344/1/6
f 345/1/6 346/1/6 349/1/6
f 349/1/6 346/1/6 350/1/6
f 347/1/6 348/1/6 351/1/6
f 351/1/6 348/1/6 352/1/6
f 353/4/6 354/4/6 355/4/6
f 355/4/6 354/4/6 356/4/6
