# MagicaVoxel @ Ephtracy

# group
o 

# material
mtllib Heroes-1.mtl
usemtl palette

# normals
vn 1 0 0
vn -1 0 0
vn 0 0 1
vn 0 0 -1
vn 0 -1 0
vn 0 1 0

# texcoords
vt 0.0605469 0.5
vt 0.228516 0.5
vt 0.978516 0.5

# verts
v 2.4 5.2 -0.1
v 2.4 5.2 -0.3
v 2.4 5.4 0.1
v 2.4 5.4 -0.1
v 2.4 5.6 0.1
v 2.4 5.6 -0.3
v 2.3 5.1 0.4
v 2.3 5.1 -0.2
v 2.3 5.2 -0.1
v 2.3 5.2 -0.2
v 2.3 5.4 0.1
v 2.3 5.4 -0.1
v 2.3 5.6 0.4
v 2.3 5.6 0.1
v 2.3 5.6 -0.1
v 2.3 5.7 0.5
v 2.3 5.7 0.4
v 2.3 5.7 -0.1
v 2.3 5.7 -0.2
v 2.3 6.1 0.5
v 2.3 6.1 0.4
v 2.3 6.1 -0.1
v 2.3 6.1 -0.2
v 2.3 6.9 0.4
v 2.3 6.9 -0.1
v 1.9 6 -0.1
v 1.9 6 -0.2
v 1.9 6.1 -0.1
v 1.9 6.1 -0.2
v 2.2 5.2 -0.2
v 2.2 5.2 -0.3
v 2.2 5.5 -0.2
v 2.2 5.6 -0.2
v 2.2 5.6 -0.3
v 2.2 6 -0.1
v 2.2 6 -0.2
v 2.2 6.1 -0.1
v 2.2 6.1 -0.2
v 1.9 6.8 0.4
v 1.9 6.8 -0.1
v 1.9 6.9 0.4
v 1.9 6.9 -0.1
v 1.8 5.1 0.4
v 1.8 5.1 -0.2
v 1.8 5.6 -0.1
v 1.8 5.6 -0.2
v 1.8 5.7 0.5
v 1.8 5.7 0.4
v 1.8 5.7 -0.1
v 1.8 5.7 -0.2
v 1.8 6.1 0.5
v 1.8 6.1 0.4
v 1.8 6.1 -0.1
v 1.8 6.1 -0.2
v 1.8 6.8 0.4
v 1.8 6.8 -0.1
v 1.7 5.7 0.4
v 1.7 5.7 -0.1
v 1.7 6.1 0.4
v 1.7 6.1 -0.1
v 2.3 5.7 0.5
v 2.3 6.1 0.5
v 1.8 5.7 0.5
v 1.8 6.1 0.5
v 2.3 5.1 0.4
v 2.3 5.6 0.4
v 2.3 5.7 0.4
v 2.3 6.1 0.4
v 2.3 6.9 0.4
v 2.2 5.1 0.4
v 2.2 5.2 0.4
v 2.2 5.5 0.4
v 2.2 5.6 0.4
v 2.1 5.2 0.4
v 2.1 5.3 0.4
v 2 5.3 0.4
v 2 5.5 0.4
v 1.9 6.8 0.4
v 1.9 6.9 0.4
v 1.8 5.1 0.4
v 1.8 5.7 0.4
v 1.8 6.1 0.4
v 1.8 6.8 0.4
v 1.7 5.7 0.4
v 1.7 6.1 0.4
v 2.4 5.4 0.1
v 2.4 5.6 0.1
v 2.3 5.4 0.1
v 2.3 5.6 0.1
v 2.4 5.2 -0.1
v 2.4 5.4 -0.1
v 2.3 5.2 -0.1
v 2.3 5.4 -0.1
v 2.3 5.6 -0.1
v 2.3 5.7 -0.1
v 2.3 6.1 -0.1
v 2.3 6.9 -0.1
v 2.2 6 -0.1
v 2.2 6.1 -0.1
v 1.9 6 -0.1
v 1.9 6.1 -0.1
v 1.9 6.8 -0.1
v 1.9 6.9 -0.1
v 1.8 5.6 -0.1
v 1.8 5.7 -0.1
v 1.8 6.1 -0.1
v 1.8 6.8 -0.1
v 1.7 5.7 -0.1
v 1.7 6.1 -0.1
v 2.3 5.1 -0.2
v 2.3 5.2 -0.2
v 2.3 5.7 -0.2
v 2.3 6.1 -0.2
v 2.2 5.1 -0.2
v 2.2 5.2 -0.2
v 2.2 5.5 -0.2
v 2.2 5.6 -0.2
v 2.2 6 -0.2
v 2.2 6.1 -0.2
v 2.1 5.3 -0.2
v 2.1 5.5 -0.2
v 2 5.2 -0.2
v 2 5.3 -0.2
v 1.9 6 -0.2
v 1.9 6.1 -0.2
v 1.8 5.1 -0.2
v 1.8 5.6 -0.2
v 1.8 5.7 -0.2
v 1.8 6.1 -0.2
v 2.4 5.2 -0.3
v 2.4 5.6 -0.3
v 2.2 5.2 -0.3
v 2.2 5.6 -0.3
v 2.3 5.1 0.4
v 2.2 5.1 0.4
v 1.8 5.1 0.4
v 2.3 5.1 -0.2
v 2.2 5.1 -0.2
v 1.8 5.1 -0.2
v 2.4 5.2 -0.1
v 2.3 5.2 -0.1
v 2.3 5.2 -0.2
v 2.2 5.2 -0.2
v 2.4 5.2 -0.3
v 2.2 5.2 -0.3
v 2.4 5.4 0.1
v 2.3 5.4 0.1
v 2.4 5.4 -0.1
v 2.3 5.4 -0.1
v 2.3 5.7 0.5
v 1.8 5.7 0.5
v 2.3 5.7 0.4
v 1.8 5.7 0.4
v 1.7 5.7 0.4
v 2.3 5.7 -0.1
v 1.8 5.7 -0.1
v 1.7 5.7 -0.1
v 2.3 5.7 -0.2
v 1.8 5.7 -0.2
v 2.4 5.6 0.1
v 2.3 5.6 0.1
v 2.3 5.6 -0.1
v 1.8 5.6 -0.1
v 2.2 5.6 -0.2
v 1.8 5.6 -0.2
v 2.4 5.6 -0.3
v 2.2 5.6 -0.3
v 2.2 6 -0.1
v 1.9 6 -0.1
v 2.2 6 -0.2
v 1.9 6 -0.2
v 2.3 6.1 0.5
v 1.8 6.1 0.5
v 2.3 6.1 0.4
v 1.8 6.1 0.4
v 1.7 6.1 0.4
v 2.3 6.1 -0.1
v 2.2 6.1 -0.1
v 1.9 6.1 -0.1
v 1.8 6.1 -0.1
v 1.7 6.1 -0.1
v 2.3 6.1 -0.2
v 2.2 6.1 -0.2
v 1.9 6.1 -0.2
v 1.8 6.1 -0.2
v 1.9 6.8 0.4
v 1.8 6.8 0.4
v 1.9 6.8 -0.1
v 1.8 6.8 -0.1
v 2.3 6.9 0.4
v 1.9 6.9 0.4
v 2.3 6.9 -0.1
v 1.9 6.9 -0.1

# faces
f 1/1/1 2/1/1 4/1/1
f 3/1/1 4/1/1 5/1/1
f 4/1/1 2/1/1 6/1/1
f 5/1/1 4/1/1 6/1/1
f 7/2/1 8/2/1 9/2/1
f 9/2/1 8/2/1 10/2/1
f 7/2/1 9/2/1 11/2/1
f 11/2/1 9/2/1 12/2/1
f 7/2/1 11/2/1 13/2/1
f 13/2/1 11/2/1 14/2/1
f 13/1/1 14/1/1 17/1/1
f 14/1/1 15/1/1 17/1/1
f 17/1/1 15/1/1 18/1/1
f 17/3/1 18/3/1 20/3/1
f 18/3/1 19/3/1 20/3/1
f 16/3/1 17/3/1 20/3/1
f 20/3/1 19/3/1 21/3/1
f 21/3/1 19/3/1 22/3/1
f 22/3/1 19/3/1 23/3/1
f 21/1/1 22/1/1 24/1/1
f 24/1/1 22/1/1 25/1/1
f 26/3/1 27/3/1 28/3/1
f 28/3/1 27/3/1 29/3/1
f 32/1/2 31/1/2 30/1/2
f 33/1/2 31/1/2 32/1/2
f 34/1/2 31/1/2 33/1/2
f 37/3/2 36/3/2 35/3/2
f 38/3/2 36/3/2 37/3/2
f 41/1/2 40/1/2 39/1/2
f 42/1/2 40/1/2 41/1/2
f 45/1/2 44/1/2 43/1/2
f 46/1/2 44/1/2 45/1/2
f 48/1/2 45/1/2 43/1/2
f 49/1/2 45/1/2 48/1/2
f 51/3/2 48/3/2 47/3/2
f 52/3/2 48/3/2 51/3/2
f 53/3/2 50/3/2 49/3/2
f 54/3/2 50/3/2 53/3/2
f 55/1/2 53/1/2 52/1/2
f 56/1/2 53/1/2 55/1/2
f 59/3/2 58/3/2 57/3/2
f 60/3/2 58/3/2 59/3/2
f 61/3/3 62/3/3 63/3/3
f 63/3/3 62/3/3 64/3/3
f 65/2/3 66/2/3 70/2/3
f 70/2/3 66/2/3 71/2/3
f 71/2/3 66/2/3 72/2/3
f 66/1/3 67/1/3 73/1/3
f 72/2/3 66/2/3 73/2/3
f 71/2/3 72/2/3 74/2/3
f 70/1/3 71/1/3 74/1/3
f 74/2/3 72/2/3 75/2/3
f 74/1/3 75/1/3 76/1/3
f 75/2/3 72/2/3 76/2/3
f 72/1/3 73/1/3 77/1/3
f 76/2/3 72/2/3 77/2/3
f 68/1/3 69/1/3 78/1/3
f 78/1/3 69/1/3 79/1/3
f 74/1/3 76/1/3 80/1/3
f 70/1/3 74/1/3 80/1/3
f 76/1/3 77/1/3 80/1/3
f 77/1/3 73/1/3 81/1/3
f 80/1/3 77/1/3 81/1/3
f 73/1/3 67/1/3 81/1/3
f 68/1/3 78/1/3 82/1/3
f 82/1/3 78/1/3 83/1/3
f 81/3/3 82/3/3 84/3/3
f 84/3/3 82/3/3 85/3/3
f 86/1/3 87/1/3 88/1/3
f 88/1/3 87/1/3 89/1/3
f 90/1/3 91/1/3 92/1/3
f 92/1/3 91/1/3 93/1/3
f 99/1/4 97/1/4 96/1/4
f 100/1/4 99/1/4 98/1/4
f 101/1/4 97/1/4 99/1/4
f 101/1/4 99/1/4 100/1/4
f 102/1/4 97/1/4 101/1/4
f 103/1/4 97/1/4 102/1/4
f 104/1/4 95/1/4 94/1/4
f 105/1/4 95/1/4 104/1/4
f 106/1/4 102/1/4 101/1/4
f 107/1/4 102/1/4 106/1/4
f 108/3/4 106/3/4 105/3/4
f 109/3/4 106/3/4 108/3/4
f 114/2/4 111/2/4 110/2/4
f 115/2/4 111/2/4 114/2/4
f 118/3/4 113/3/4 112/3/4
f 119/3/4 113/3/4 118/3/4
f 120/2/4 116/2/4 115/2/4
f 121/1/4 117/1/4 116/1/4
f 121/2/4 116/2/4 120/2/4
f 122/2/4 120/2/4 115/2/4
f 122/1/4 115/1/4 114/1/4
f 123/1/4 121/1/4 120/1/4
f 123/2/4 120/2/4 122/2/4
f 124/3/4 118/3/4 112/3/4
f 126/1/4 122/1/4 114/1/4
f 126/1/4 123/1/4 122/1/4
f 127/1/4 117/1/4 121/1/4
f 127/1/4 123/1/4 126/1/4
f 127/1/4 121/1/4 123/1/4
f 128/3/4 125/3/4 124/3/4
f 128/3/4 124/3/4 112/3/4
f 129/3/4 125/3/4 128/3/4
f 132/1/4 131/1/4 130/1/4
f 133/1/4 131/1/4 132/1/4
f 134/2/5 135/2/5 137/2/5
f 135/1/5 136/1/5 138/1/5
f 137/2/5 135/2/5 138/2/5
f 138/1/5 136/1/5 139/1/5
f 140/1/5 141/1/5 142/1/5
f 140/1/5 142/1/5 144/1/5
f 142/1/5 143/1/5 144/1/5
f 144/1/5 143/1/5 145/1/5
f 146/1/5 147/1/5 148/1/5
f 148/1/5 147/1/5 149/1/5
f 150/3/5 151/3/5 152/3/5
f 152/3/5 151/3/5 153/3/5
f 153/3/5 154/3/5 156/3/5
f 156/3/5 154/3/5 157/3/5
f 155/3/5 156/3/5 158/3/5
f 158/3/5 156/3/5 159/3/5
f 162/1/6 161/1/6 160/1/6
f 164/1/6 163/1/6 162/1/6
f 165/1/6 163/1/6 164/1/6
f 166/1/6 162/1/6 160/1/6
f 166/1/6 164/1/6 162/1/6
f 167/1/6 164/1/6 166/1/6
f 170/3/6 169/3/6 168/3/6
f 171/3/6 169/3/6 170/3/6
f 174/3/6 173/3/6 172/3/6
f 175/3/6 173/3/6 174/3/6
f 180/3/6 176/3/6 175/3/6
f 181/3/6 176/3/6 180/3/6
f 182/3/6 178/3/6 177/3/6
f 183/3/6 178/3/6 182/3/6
f 184/3/6 180/3/6 179/3/6
f 185/3/6 180/3/6 184/3/6
f 188/1/6 187/1/6 186/1/6
f 189/1/6 187/1/6 188/1/6
f 192/1/6 191/1/6 190/1/6
f 193/1/6 191/1/6 192/1/6
