# MagicaVoxel @ Ephtracy

# group
o 

# material
mtllib Heroes-2.mtl
usemtl palette

# normals
vn -1 0 0
vn 1 0 0
vn 0 0 1
vn 0 0 -1
vn 0 -1 0
vn 0 1 0

# texcoords
vt 0.115234 0.5
vt 0.228516 0.5
vt 0.392578 0.5
vt 0.986328 0.5

# verts
v 1.8 5.4 0.5
v 1.8 5.4 -0.3
v 1.8 5.5 0.5
v 1.8 5.5 -0.3
v 1.8 5.7 0.5
v 1.8 5.7 0.4
v 1.8 5.7 0.1
v 1.8 5.7 0
v 1.8 5.7 -0.3
v 1.8 5.8 0.4
v 1.8 5.8 0.1
v 1.8 6.7 0.5
v 1.8 6.7 0
v 1.9 5.4 -0.3
v 1.9 5.4 -0.4
v 1.9 5.5 -0.3
v 1.9 5.5 -0.4
v 1.9 5.7 0
v 1.9 5.7 -0.1
v 1.9 5.7 -0.2
v 1.9 5.7 -0.3
v 1.9 5.7 -0.4
v 1.9 5.8 0
v 1.9 5.8 -0.1
v 1.9 5.8 -0.2
v 2.2 5.4 -0.3
v 2.2 5.4 -0.4
v 2.2 5.5 -0.3
v 2.2 5.5 -0.4
v 2.2 5.7 0
v 2.2 5.7 -0.1
v 2.2 5.7 -0.2
v 2.2 5.7 -0.3
v 2.2 5.7 -0.4
v 2.2 5.8 0
v 2.2 5.8 -0.1
v 2.2 5.8 -0.2
v 2.3 5.4 0.5
v 2.3 5.4 -0.3
v 2.3 5.5 0.5
v 2.3 5.5 -0.3
v 2.3 5.7 0.5
v 2.3 5.7 0.4
v 2.3 5.7 0.1
v 2.3 5.7 0
v 2.3 5.7 -0.3
v 2.3 5.8 0.4
v 2.3 5.8 0.1
v 2.3 6.7 0.5
v 2.3 6.7 0
v 1.8 5.4 0.5
v 1.8 5.5 0.5
v 1.8 5.7 0.5
v 1.8 6.7 0.5
v 1.9 5.7 0.5
v 1.9 5.8 0.5
v 2.2 5.7 0.5
v 2.2 5.8 0.5
v 2.3 5.4 0.5
v 2.3 5.5 0.5
v 2.3 5.7 0.5
v 2.3 6.7 0.5
v 1.8 5.7 0
v 1.8 6.7 0
v 1.9 5.7 0
v 1.9 5.8 0
v 2.2 5.7 0
v 2.2 5.8 0
v 2.3 5.7 0
v 2.3 6.7 0
v 1.9 5.7 -0.2
v 1.9 5.8 -0.2
v 2.2 5.7 -0.2
v 2.2 5.8 -0.2
v 1.8 5.4 -0.3
v 1.8 5.5 -0.3
v 1.8 5.7 -0.3
v 1.9 5.4 -0.3
v 1.9 5.5 -0.3
v 1.9 5.7 -0.3
v 2.2 5.4 -0.3
v 2.2 5.5 -0.3
v 2.2 5.7 -0.3
v 2.3 5.4 -0.3
v 2.3 5.5 -0.3
v 2.3 5.7 -0.3
v 1.9 5.4 -0.4
v 1.9 5.5 -0.4
v 1.9 5.7 -0.4
v 2.2 5.4 -0.4
v 2.2 5.5 -0.4
v 2.2 5.7 -0.4
v 1.8 5.4 0.5
v 2.3 5.4 0.5
v 1.8 5.4 -0.3
v 1.9 5.4 -0.3
v 2.2 5.4 -0.3
v 2.3 5.4 -0.3
v 1.9 5.4 -0.4
v 2.2 5.4 -0.4
v 1.8 5.7 0
v 1.9 5.7 0
v 2.2 5.7 0
v 2.3 5.7 0
v 1.9 5.7 -0.1
v 2.2 5.7 -0.1
v 1.9 5.7 -0.2
v 2.2 5.7 -0.2
v 1.8 5.7 -0.3
v 1.9 5.7 -0.3
v 2.2 5.7 -0.3
v 2.3 5.7 -0.3
v 1.9 5.7 -0.4
v 2.2 5.7 -0.4
v 1.9 5.8 0
v 2.2 5.8 0
v 1.9 5.8 -0.1
v 2.2 5.8 -0.1
v 1.9 5.8 -0.2
v 2.2 5.8 -0.2
v 1.8 6.7 0.5
v 2.3 6.7 0.5
v 1.8 6.7 0
v 2.3 6.7 0

# faces
f 3/4/1 2/4/1 1/4/1
f 4/4/1 2/4/1 3/4/1
f 5/3/1 4/3/1 3/3/1
f 6/3/1 4/3/1 5/3/1
f 7/3/1 4/3/1 6/3/1
f 8/3/1 4/3/1 7/3/1
f 9/3/1 4/3/1 8/3/1
f 10/1/1 6/1/1 5/1/1
f 10/3/1 7/3/1 6/3/1
f 11/1/1 8/1/1 7/1/1
f 11/3/1 7/3/1 10/3/1
f 12/1/1 10/1/1 5/1/1
f 12/1/1 11/1/1 10/1/1
f 13/1/1 8/1/1 11/1/1
f 13/1/1 11/1/1 12/1/1
f 16/4/1 15/4/1 14/4/1
f 17/4/1 15/4/1 16/4/1
f 21/3/1 17/3/1 16/3/1
f 22/3/1 17/3/1 21/3/1
f 23/3/1 19/3/1 18/3/1
f 24/4/1 20/4/1 19/4/1
f 24/3/1 19/3/1 23/3/1
f 25/4/1 20/4/1 24/4/1
f 26/4/2 27/4/2 28/4/2
f 28/4/2 27/4/2 29/4/2
f 28/3/2 29/3/2 33/3/2
f 33/3/2 29/3/2 34/3/2
f 30/3/2 31/3/2 35/3/2
f 31/4/2 32/4/2 36/4/2
f 35/3/2 31/3/2 36/3/2
f 36/4/2 32/4/2 37/4/2
f 38/4/2 39/4/2 40/4/2
f 40/4/2 39/4/2 41/4/2
f 40/3/2 41/3/2 42/3/2
f 42/3/2 41/3/2 43/3/2
f 43/3/2 41/3/2 44/3/2
f 44/3/2 41/3/2 45/3/2
f 45/3/2 41/3/2 46/3/2
f 42/1/2 43/1/2 47/1/2
f 43/3/2 44/3/2 47/3/2
f 44/1/2 45/1/2 48/1/2
f 47/3/2 44/3/2 48/3/2
f 42/1/2 47/1/2 49/1/2
f 47/1/2 48/1/2 49/1/2
f 48/1/2 45/1/2 50/1/2
f 49/1/2 48/1/2 50/1/2
f 55/3/3 53/3/3 52/3/3
f 55/1/3 54/1/3 53/1/3
f 56/1/3 54/1/3 55/1/3
f 57/3/3 55/3/3 52/3/3
f 57/3/3 56/3/3 55/3/3
f 58/1/3 54/1/3 56/1/3
f 58/3/3 56/3/3 57/3/3
f 59/4/3 52/4/3 51/4/3
f 60/3/3 57/3/3 52/3/3
f 60/4/3 52/4/3 59/4/3
f 61/1/3 58/1/3 57/1/3
f 61/3/3 57/3/3 60/3/3
f 62/1/3 54/1/3 58/1/3
f 62/1/3 58/1/3 61/1/3
f 63/1/4 64/1/4 65/1/4
f 65/1/4 64/1/4 66/1/4
f 66/1/4 64/1/4 68/1/4
f 67/1/4 68/1/4 69/1/4
f 68/1/4 64/1/4 70/1/4
f 69/1/4 68/1/4 70/1/4
f 71/4/4 72/4/4 73/4/4
f 73/4/4 72/4/4 74/4/4
f 75/4/4 76/4/4 78/4/4
f 76/3/4 77/3/4 79/3/4
f 78/4/4 76/4/4 79/4/4
f 79/3/4 77/3/4 80/3/4
f 81/4/4 82/4/4 84/4/4
f 82/3/4 83/3/4 85/3/4
f 84/4/4 82/4/4 85/4/4
f 85/3/4 83/3/4 86/3/4
f 87/4/4 88/4/4 90/4/4
f 88/3/4 89/3/4 91/3/4
f 90/4/4 88/4/4 91/4/4
f 91/3/4 89/3/4 92/3/4
f 95/4/5 94/4/5 93/4/5
f 96/4/5 94/4/5 95/4/5
f 97/4/5 94/4/5 96/4/5
f 98/4/5 94/4/5 97/4/5
f 99/4/5 97/4/5 96/4/5
f 100/4/5 97/4/5 99/4/5
f 101/3/6 102/3/6 105/3/6
f 103/3/6 104/3/6 106/3/6
f 101/3/6 105/3/6 107/3/6
f 106/3/6 104/3/6 108/3/6
f 101/3/6 107/3/6 109/3/6
f 107/3/6 108/3/6 109/3/6
f 109/3/6 108/3/6 110/3/6
f 108/3/6 104/3/6 111/3/6
f 110/3/6 108/3/6 111/3/6
f 111/3/6 104/3/6 112/3/6
f 110/3/6 111/3/6 113/3/6
f 113/3/6 111/3/6 114/3/6
f 115/3/6 116/3/6 117/3/6
f 117/3/6 116/3/6 118/3/6
f 117/4/6 118/4/6 119/4/6
f 119/4/6 118/4/6 120/4/6
f 121/1/6 122/1/6 123/1/6
f 123/1/6 122/1/6 124/1/6
